<svg width="16" height="17" viewBox="0 0 16 17" fill="none" xmlns="http://www.w3.org/2000/svg">
<path opacity="0.5" d="M13.6571 2.84326C12.5383 1.72442 11.1128 0.962461 9.56094 0.65375C8.00909 0.345039 6.40053 0.503437 4.93872 1.10892C3.47688 1.7144 2.22742 2.73976 1.34833 4.05535C0.469252 5.37092 3.05088e-05 6.91765 0 8.49993V15.1668C0 15.5204 0.140466 15.8595 0.390495 16.1095C0.640525 16.3595 0.979636 16.5 1.33323 16.5H8.00007C9.58229 16.5 11.129 16.0308 12.4446 15.1517C13.7601 14.2727 14.7855 13.0233 15.391 11.5615C15.9965 10.0997 16.155 8.49122 15.8463 6.93941C15.5377 5.38757 14.7758 3.9621 13.6571 2.84326ZM4.94276 9.44299C4.72462 9.66116 4.43757 9.79696 4.13055 9.82723C3.82349 9.8575 3.51546 9.78035 3.25891 9.60899C3.00237 9.4376 2.81318 9.18255 2.72358 8.88733C2.634 8.5921 2.64955 8.27495 2.76758 7.98989C2.88562 7.70484 3.09884 7.46952 3.37091 7.32406C3.64302 7.1786 3.95712 7.13195 4.2597 7.19212C4.56231 7.25226 4.83469 7.41548 5.03045 7.65396C5.22622 7.89243 5.33324 8.19139 5.33327 8.49993C5.33327 8.85363 5.19283 9.19282 4.94276 9.44299ZM8.94279 9.44299C8.72466 9.66116 8.4376 9.79696 8.13058 9.82723C7.82353 9.8575 7.51549 9.78035 7.25895 9.60899C7.0024 9.4376 6.81322 9.18255 6.72362 8.88733C6.63403 8.5921 6.64959 8.27495 6.76762 7.98989C6.88566 7.70484 7.09888 7.46952 7.37095 7.32406C7.64305 7.1786 7.95716 7.13195 8.25974 7.19212C8.56235 7.25226 8.83473 7.41548 9.03049 7.65396C9.22625 7.89243 9.33327 8.19139 9.33331 8.49993C9.33331 8.85363 9.19286 9.19282 8.94279 9.44299ZM12.9428 9.44299C12.7247 9.66116 12.4376 9.79696 12.1306 9.82723C11.8236 9.8575 11.5155 9.78035 11.259 9.60899C11.0024 9.4376 10.8133 9.18255 10.7237 8.88733C10.6341 8.5921 10.6496 8.27495 10.7677 7.98989C10.8857 7.70484 11.0989 7.46952 11.371 7.32406C11.6431 7.1786 11.9572 7.13195 12.2598 7.19212C12.5624 7.25226 12.8348 7.41548 13.0305 7.65396C13.2263 7.89243 13.3333 8.19139 13.3333 8.49993C13.3333 8.85363 13.1929 9.19282 12.9428 9.44299Z" fill="#87FBFC"/>
</svg>
