<svg width="10" height="10" viewBox="0 0 10 10" fill="none" xmlns="http://www.w3.org/2000/svg">
<path d="M9.78999 8.78052C9.85655 8.84688 9.90937 8.92572 9.94541 9.01254C9.98145 9.09936 10 9.19244 10 9.28645C10 9.38045 9.98145 9.47353 9.94541 9.56035C9.90937 9.64717 9.85655 9.72601 9.78999 9.79237C9.65524 9.92541 9.47354 10 9.28421 10C9.09489 10 8.91318 9.92541 8.77844 9.79237L5 6.01281L1.22156 9.79237C1.08682 9.92541 0.905114 10 0.715788 10C0.526463 10 0.344757 9.92541 0.210014 9.79237C0.143446 9.72601 0.0906291 9.64717 0.0545903 9.56035C0.0185515 9.47353 0 9.38045 0 9.28645C0 9.19244 0.0185515 9.09936 0.0545903 9.01254C0.0906291 8.92572 0.143446 8.84688 0.210014 8.78052L3.98845 5.00097L0.210014 1.22141C0.0758737 1.08723 0.000514577 0.905244 0.000514577 0.715486C0.000514577 0.621527 0.0190158 0.528488 0.0549616 0.441681C0.0909075 0.354875 0.143594 0.276 0.210014 0.209561C0.276433 0.143122 0.355284 0.0904197 0.442065 0.0544632C0.528846 0.0185067 0.621857 0 0.715788 0C0.905491 0 1.08742 0.0753814 1.22156 0.209561L5 3.98912L8.77844 0.209561C8.91258 0.0753814 9.09451 0 9.28421 0C9.47391 0 9.65585 0.0753814 9.78999 0.209561C9.92413 0.343741 9.99949 0.525727 9.99949 0.715486C9.99949 0.905244 9.92413 1.08723 9.78999 1.22141L6.01155 5.00097L9.78999 8.78052Z" fill="white"/>
</svg>
