<svg width="138" height="50" viewBox="0 0 138 50" fill="none" xmlns="http://www.w3.org/2000/svg">
<path d="M53.48 39.72C52.0133 39.72 50.52 39.5333 49 39.16C47.48 38.8133 46.2133 38.3467 45.2 37.76L45.4 32.32H45.8L47.04 34.92C47.4133 35.6667 47.8133 36.3333 48.24 36.92C48.6667 37.48 49.2533 37.92 50 38.24C50.5333 38.5067 51.04 38.6933 51.52 38.8C52.0267 38.88 52.5867 38.92 53.2 38.92C54.8267 38.92 56.1067 38.48 57.04 37.6C58 36.72 58.48 35.5867 58.48 34.2C58.48 32.8933 58.16 31.88 57.52 31.16C56.88 30.4133 55.8533 29.6933 54.44 29L52.8 28.28C50.5067 27.2667 48.7067 26.1067 47.4 24.8C46.12 23.4667 45.48 21.7067 45.48 19.52C45.48 17.9467 45.88 16.5867 46.68 15.44C47.5067 14.2933 48.64 13.4133 50.08 12.8C51.5467 12.1867 53.2533 11.88 55.2 11.88C56.6133 11.88 57.9467 12.0667 59.2 12.44C60.48 12.8133 61.5867 13.32 62.52 13.96L62.28 18.76H61.88L60.24 15.76C59.7867 14.8267 59.3333 14.1733 58.88 13.8C58.4267 13.4 57.9067 13.12 57.32 12.96C56.9733 12.8533 56.6533 12.7867 56.36 12.76C56.0667 12.7067 55.6933 12.68 55.24 12.68C53.88 12.68 52.7333 13.08 51.8 13.88C50.8667 14.6533 50.4 15.7067 50.4 17.04C50.4 18.4 50.76 19.4933 51.48 20.32C52.2 21.12 53.2533 21.84 54.64 22.48L56.48 23.28C59.04 24.4 60.88 25.6 62 26.88C63.12 28.1333 63.68 29.76 63.68 31.76C63.68 34.1067 62.7867 36.0267 61 37.52C59.24 38.9867 56.7333 39.72 53.48 39.72ZM65.5031 39V38.6L66.3031 38.32C67.2098 38.0267 67.6631 37.2667 67.6631 36.04V15.56C67.6631 15.0267 67.5965 14.6 67.4631 14.28C67.3565 13.96 67.0498 13.6933 66.5431 13.48L65.5031 13V12.6H73.2231L80.6231 31.96L87.5831 12.6H95.4631V13L94.8231 13.24C94.3165 13.4267 93.9698 13.6933 93.7831 14.04C93.5965 14.36 93.5031 14.7867 93.5031 15.32V36.24C93.5031 36.7733 93.5698 37.1867 93.7031 37.48C93.8365 37.7733 94.1565 38.0267 94.6631 38.24L95.4631 38.6V39H85.5031V38.6L86.3431 38.24C86.8498 38.0267 87.1698 37.7733 87.3031 37.48C87.4365 37.1867 87.5031 36.7733 87.5031 36.24V27.24L87.5831 15.8L79.2231 39H77.2231L68.5031 16.08L68.6231 26.04V36.12C68.6231 36.7067 68.7031 37.1867 68.8631 37.56C69.0498 37.9067 69.3965 38.16 69.9031 38.32L70.7831 38.6V39H65.5031ZM100.704 39.72C99.3971 39.72 98.3838 39.4667 97.6637 38.96C96.9704 38.4533 96.6238 37.7733 96.6238 36.92C96.6238 36.1733 96.8771 35.6 97.3838 35.2C97.9171 34.8 98.5304 34.6 99.2238 34.6C99.9171 34.6 100.53 34.76 101.064 35.08C101.597 35.3733 102.09 35.8933 102.544 36.64L103.264 37.88C103.397 38.0667 103.557 38.16 103.744 38.16C103.957 38.16 104.104 38.04 104.184 37.8C104.344 37.2667 104.45 36.4933 104.504 35.48C104.584 34.44 104.624 33.1867 104.624 31.72C104.624 30.04 104.584 27.88 104.504 25.24C104.424 22.6 104.344 19.3467 104.264 15.48C104.264 14.3333 103.837 13.6133 102.984 13.32L102.064 13V12.6H112.544V13L111.664 13.32C111.184 13.5067 110.85 13.76 110.664 14.08C110.504 14.3733 110.424 14.8 110.424 15.36V23.28C110.424 25.8933 110.304 28.0533 110.064 29.76C109.824 31.4667 109.437 32.9467 108.904 34.2C108.237 35.9867 107.144 37.36 105.624 38.32C104.13 39.2533 102.49 39.72 100.704 39.72ZM114.06 39V38.6L114.78 38.32C115.313 38.1067 115.673 37.84 115.86 37.52C116.073 37.2 116.18 36.7733 116.18 36.24V15.36C116.18 14.8 116.073 14.36 115.86 14.04C115.673 13.72 115.313 13.4667 114.78 13.28L114.06 13V12.6H125.54C128.793 12.6 131.14 13.2 132.58 14.4C134.02 15.5733 134.74 17.0667 134.74 18.88C134.74 20.24 134.206 21.48 133.14 22.6C132.1 23.6933 130.3 24.4667 127.74 24.92C130.673 25.24 132.82 26.0133 134.18 27.24C135.54 28.44 136.22 29.9067 136.22 31.64C136.22 32.4933 136.033 33.36 135.66 34.24C135.286 35.0933 134.646 35.88 133.74 36.6C132.86 37.32 131.646 37.9067 130.1 38.36C128.553 38.7867 126.593 39 124.22 39H114.06ZM122.1 24.88H123.82C125.606 24.88 126.886 24.4667 127.66 23.64C128.46 22.8133 128.86 21.3733 128.86 19.32C128.86 17.1867 128.5 15.6667 127.78 14.76C127.06 13.8533 125.886 13.4 124.26 13.4H122.1V24.88ZM122.1 38.2H124.1C126.1 38.2 127.58 37.6667 128.54 36.6C129.526 35.5333 130.02 33.8667 130.02 31.6C130.02 29.4667 129.553 27.9467 128.62 27.04C127.686 26.1333 126.153 25.68 124.02 25.68H122.1V38.2Z" fill="#292F36"/>
<path d="M0 42.0003H13.4588V32.499C13.4588 30.4853 15.0898 28.8543 17.1035 28.8543C19.1172 28.8543 20.7482 30.4853 20.7482 32.499V42.0003H33.9975V8C15.2211 8 0 23.2211 0 42.0003Z" fill="#CDA274"/>
</svg>
