<svg width="17" height="17" viewBox="0 0 17 17" fill="none" xmlns="http://www.w3.org/2000/svg">
<g clip-path="url(#clip0_3_9854)">
<path d="M16.166 0.5H0.166016V16.5H16.166V0.5Z" fill="#212333"/>
<path fill-rule="evenodd" clip-rule="evenodd" d="M7.31999 1.23242C8.25332 1.14388 9.20436 1.14388 10.1377 1.23242C10.5481 1.27119 10.8622 1.61599 10.8622 2.02879V15.2944C10.8622 15.736 10.5044 16.0944 10.0622 16.0944H7.39551C6.95332 16.0944 6.59551 15.736 6.59551 15.2944V2.02879C6.59551 1.61599 6.90956 1.27119 7.31999 1.23242ZM1.55749 4.96575C2.49082 4.87721 3.44186 4.87721 4.37519 4.96575C4.78562 5.00452 5.09967 5.34932 5.09967 5.76212V15.2944C5.09967 15.736 4.74186 16.0944 4.29967 16.0944H1.63301C1.19082 16.0944 0.833008 15.736 0.833008 15.2944V5.76212C0.833008 5.34932 1.14706 5.00452 1.55749 4.96575ZM15.4997 8.87238C15.4997 8.75718 15.5968 8.66567 15.7116 8.67426C15.8094 8.68157 15.907 8.68984 16.0044 8.69908C16.4148 8.73785 16.7288 9.08265 16.7288 9.49545V15.2944C16.7288 15.736 16.371 16.0944 15.9288 16.0944H13.2622C12.82 16.0944 12.4622 15.736 12.4622 15.2944V12.0327C12.4622 11.9222 12.5517 11.8327 12.6622 11.8327H13.9663C14.0768 11.8327 14.1663 11.7431 14.1663 11.6327V10.0327C14.1663 9.92223 14.2559 9.83268 14.3663 9.83268H15.2997C15.4101 9.83268 15.4997 9.74314 15.4997 9.63268V8.87238ZM13.4997 8.67275V8.03268C13.4997 7.92223 13.5892 7.83268 13.6997 7.83268L14.7372 7.83268C14.8476 7.83268 14.9372 7.74314 14.9372 7.63268V6.03268C14.9372 5.92222 14.8476 5.83268 14.7372 5.83268H13.1372C13.0267 5.83268 12.9372 5.92222 12.9372 6.03268V7.63268C12.9372 7.74314 12.8476 7.83268 12.7372 7.83268L11.6997 7.83268C11.5892 7.83268 11.4997 7.92223 11.4997 8.03268V9.63268C11.4997 9.74314 11.5892 9.83268 11.6997 9.83268H12.4622H13.2997C13.4101 9.83268 13.4997 9.74314 13.4997 9.63268V8.67275Z" fill="#87FBFC"/>
</g>
<defs>
<clipPath id="clip0_3_9854">
<rect width="16.6667" height="16" fill="white" transform="translate(0.166016 0.5)"/>
</clipPath>
</defs>
</svg>
