<svg width="16" height="14" viewBox="0 0 16 14" fill="none" xmlns="http://www.w3.org/2000/svg">
<path d="M3.33366 7H2.00033C1.26699 7 0.666992 7.6 0.666992 8.33333V12.3333C0.666992 13.0667 1.26699 13.6667 2.00033 13.6667H3.33366C4.06699 13.6667 4.66699 13.0667 4.66699 12.3333V8.33333C4.66699 7.6 4.06699 7 3.33366 7Z" fill="white"/>
<path d="M8.66667 0.333984H7.33333C6.6 0.333984 6 0.933984 6 1.66732V12.334C6 13.0673 6.6 13.6673 7.33333 13.6673H8.66667C9.4 13.6673 10 13.0673 10 12.334V1.66732C10 0.933984 9.4 0.333984 8.66667 0.333984Z" fill="white"/>
<path d="M14.0007 4.33398H12.6673C11.934 4.33398 11.334 4.93398 11.334 5.66732V12.334C11.334 13.0673 11.934 13.6673 12.6673 13.6673H14.0007C14.734 13.6673 15.334 13.0673 15.334 12.334V5.66732C15.334 4.93398 14.734 4.33398 14.0007 4.33398Z" fill="white"/>
</svg>
